<svg width="417" height="926" viewBox="0 0 417 926" fill="none" xmlns="http://www.w3.org/2000/svg">
<g clip-path="url(#clip0_41_263)">
<rect width="417" height="926" fill="white"/>
<rect x="-1" width="418" height="929" fill="url(#paint0_linear_41_263)"/>
<rect x="-1" width="418" height="929" fill="url(#paint1_linear_41_263)" fill-opacity="0.15"/>
<path fill-rule="evenodd" clip-rule="evenodd" d="M207.602 435.903L86.9631 383.653L94.9118 365.3L215.551 417.551L207.602 435.903Z" fill="#1F1F1F"/>
<path fill-rule="evenodd" clip-rule="evenodd" d="M119.032 332.155L-61.3178 209.047L-50.1701 192.442L130.18 315.55L119.032 332.155Z" fill="#1F1F1F"/>
<path fill-rule="evenodd" clip-rule="evenodd" d="M275.751 363.012L124.311 297.422L132.26 279.069L283.7 344.66L275.751 363.012Z" fill="#1F1F1F"/>
<path fill-rule="evenodd" clip-rule="evenodd" d="M197.402 543.911L45.9617 478.32L53.9104 459.967L205.351 525.558L197.402 543.911Z" fill="#1F1F1F"/>
<path fill-rule="evenodd" clip-rule="evenodd" d="M84.4638 596.577L33.9427 507.971L51.1129 497.715L101.634 586.321L84.4638 596.577Z" fill="#1F1F1F"/>
<path fill-rule="evenodd" clip-rule="evenodd" d="M137.161 634.505L305.111 945.471L287.712 955.334L119.762 644.368L137.161 634.505Z" fill="#1F1F1F"/>
<path fill-rule="evenodd" clip-rule="evenodd" d="M325.702 533.216L229.998 628.463L216.101 614.079L311.806 518.832L325.702 533.216Z" fill="#1F1F1F"/>
<path fill-rule="evenodd" clip-rule="evenodd" d="M379.055 629.943L-62.3771 880.18L-71.8813 862.582L369.551 612.346L379.055 629.943Z" fill="#1F1F1F"/>
<path fill-rule="evenodd" clip-rule="evenodd" d="M308.666 768.341L245.988 851.738L230.25 839.396L292.928 756L308.666 768.341Z" fill="#1F1F1F"/>
<path fill-rule="evenodd" clip-rule="evenodd" d="M290 773.443L442.889 926.021L456.724 911.578L303.834 759L290 773.443Z" fill="#1F1F1F"/>
<path fill-rule="evenodd" clip-rule="evenodd" d="M459.142 386.583L293.969 315.044L301.918 296.692L467.091 368.23L459.142 386.583Z" fill="#1F1F1F"/>
<path fill-rule="evenodd" clip-rule="evenodd" d="M367.1 592.301L256.92 475.663L271.25 461.711L381.43 578.349L367.1 592.301Z" fill="#1F1F1F"/>
<path fill-rule="evenodd" clip-rule="evenodd" d="M478.027 422.98L278.696 452.272L276.16 432.433L475.492 403.142L478.027 422.98Z" fill="#1F1F1F"/>
<path fill-rule="evenodd" clip-rule="evenodd" d="M150.285 210.222L-58.6767 195.311L-56.9933 175.382L151.968 190.293L150.285 210.222Z" fill="#1F1F1F"/>
<path fill-rule="evenodd" clip-rule="evenodd" d="M93.1275 308.025L-93.5231 376.498L-100.013 357.58L86.638 289.108L93.1275 308.025Z" fill="#1F1F1F"/>
<path fill-rule="evenodd" clip-rule="evenodd" d="M44.4086 519.946L-30.0282 487.706L-22.0795 469.354L52.3574 501.593L44.4086 519.946Z" fill="#1F1F1F"/>
<path fill-rule="evenodd" clip-rule="evenodd" d="M68.1747 435.624L-84.6962 369.414L-76.7475 351.061L76.1234 417.271L68.1747 435.624Z" fill="#1F1F1F"/>
<path fill-rule="evenodd" clip-rule="evenodd" d="M66.3755 621.91L-133.434 601.697L-131.182 581.824L68.6278 602.037L66.3755 621.91Z" fill="#1F1F1F"/>
<path fill-rule="evenodd" clip-rule="evenodd" d="M239.152 475.107L194.304 578.656L175.951 570.707L220.799 467.158L239.152 475.107Z" fill="#1F1F1F"/>
<path fill-rule="evenodd" clip-rule="evenodd" d="M264.167 416.562L444.635 -0.114999L426.283 -8.06372L245.815 408.613L264.167 416.562Z" fill="#1F1F1F"/>
<path fill-rule="evenodd" clip-rule="evenodd" d="M340.545 439.778L386.553 333.551L368.2 325.602L322.192 431.829L340.545 439.778Z" fill="#1F1F1F"/>
<path fill-rule="evenodd" clip-rule="evenodd" d="M398.591 580.161L369.506 419.267L349.899 423.213L378.984 584.106L398.591 580.161Z" fill="#1F1F1F"/>
<path fill-rule="evenodd" clip-rule="evenodd" d="M446.44 844.85L409.739 641.825L390.132 645.77L426.833 848.796L446.44 844.85Z" fill="#1F1F1F"/>
<path fill-rule="evenodd" clip-rule="evenodd" d="M173.479 233.435L50.2736 517.9L31.921 509.951L155.126 225.486L173.479 233.435Z" fill="#1F1F1F"/>
<path fill-rule="evenodd" clip-rule="evenodd" d="M184 -10.9999L184 193L164 193L164 -10.9999L184 -10.9999Z" fill="#1F1F1F"/>
<path fill-rule="evenodd" clip-rule="evenodd" d="M-33.1093 -26.4715L509.788 200.383L502.077 218.837L-40.8204 -8.01779L-33.1093 -26.4715Z" fill="#1F1F1F"/>
<path fill-rule="evenodd" clip-rule="evenodd" d="M205.854 317.202L162.93 416.306L144.578 408.357L187.501 309.253L205.854 317.202Z" fill="#1F1F1F"/>
<path fill-rule="evenodd" clip-rule="evenodd" d="M260.098 244.796L219.56 338.395L201.207 330.446L241.746 236.848L260.098 244.796Z" fill="#1F1F1F"/>
<path fill-rule="evenodd" clip-rule="evenodd" d="M193.221 578.879L126.358 616.778L116.855 599.18L183.717 561.281L193.221 578.879Z" fill="#1F1F1F"/>
<path fill-rule="evenodd" clip-rule="evenodd" d="M110.704 656.498L89.456 966.74L69.4861 965.644L90.7339 655.402L110.704 656.498Z" fill="#1F1F1F"/>
<path fill-rule="evenodd" clip-rule="evenodd" d="M199.533 566.219L308.732 768.407L291.333 778.27L236.734 677.176L182.134 576.082L199.533 566.219Z" fill="#1F1F1F"/>
<path fill-rule="evenodd" clip-rule="evenodd" d="M313.776 279.301L182.87 222.604L190.819 204.251L321.725 260.948L313.776 279.301Z" fill="#1F1F1F"/>
<path fill-rule="evenodd" clip-rule="evenodd" d="M488.752 318.765L321.831 246.469L329.78 228.116L496.701 300.412L488.752 318.765Z" fill="#1F1F1F"/>
<path d="M89.2941 649.226C104.635 655.87 121.622 647.552 128.027 632.763C134.432 617.975 128.879 599.895 113.538 593.25C98.1966 586.606 81.2095 594.924 74.8046 609.712C68.3997 624.5 73.9529 642.581 89.2941 649.226Z" stroke="#1F1F1F" stroke-width="20"/>
<path d="M384.46 638.351C399.802 644.995 416.789 636.677 423.194 621.888C429.598 607.1 424.045 589.02 408.704 582.375C393.363 575.731 376.376 584.049 369.971 598.837C363.566 613.625 369.119 631.706 384.46 638.351Z" stroke="#1F1F1F" stroke-width="20"/>
<path d="M228.702 475.33C247.041 483.273 267.937 474.065 275.807 455.893C283.678 437.721 276.1 416.181 257.761 408.238C239.422 400.295 218.526 409.503 210.656 427.675C202.785 445.847 210.364 467.387 228.702 475.33Z" stroke="#1F1F1F" stroke-width="20"/>
<path d="M164.713 230.557C176.63 235.719 189.732 229.405 194.612 218.138C199.492 206.871 195.134 192.996 183.217 187.835C171.299 182.673 158.198 188.986 153.318 200.254C148.438 211.521 152.796 225.396 164.713 230.557Z" stroke="#1F1F1F" stroke-width="20"/>
<path d="M158.5 403L99.4999 378L59.4999 473.5L202.5 536L228 477C264.8 484.6 278 456.5 280 441.5L332.5 435.5L372.5 339L301 307.5L280 354.5L194.5 318L158.5 403Z" stroke="#43C060" stroke-width="7" stroke-linejoin="round"/>
</g>
<defs>
<linearGradient id="paint0_linear_41_263" x1="331.5" y1="96" x2="-3.67304" y2="883.17" gradientUnits="userSpaceOnUse">
<stop stop-color="#363636"/>
<stop offset="1" stop-color="#1F1F1F"/>
</linearGradient>
<linearGradient id="paint1_linear_41_263" x1="382" y1="874.5" x2="17.1922" y2="55.2296" gradientUnits="userSpaceOnUse">
<stop stop-color="#13DE28"/>
<stop offset="1" stop-color="#2A8934"/>
</linearGradient>
<clipPath id="clip0_41_263">
<rect width="417" height="926" fill="white"/>
</clipPath>
</defs>
</svg>
