<svg width="456" height="921" viewBox="0 0 456 921" fill="none" xmlns="http://www.w3.org/2000/svg">
<rect width="456" height="921" fill="#1E1E1E"/>
<rect x="17" width="418" height="867" fill="url(#paint0_linear_2_13)"/>
<path fill-rule="evenodd" clip-rule="evenodd" d="M274 392L133 392L133 371L274 371L274 392Z" fill="#0F0F0F"/>
<path fill-rule="evenodd" clip-rule="evenodd" d="M139.646 332.832L10.4949 308.484L14.3854 287.847L143.536 312.195L139.646 332.832Z" fill="#0F0F0F"/>
<path fill-rule="evenodd" clip-rule="evenodd" d="M310 300L133 300L133 279L310 279L310 300Z" fill="#0F0F0F"/>
<path fill-rule="evenodd" clip-rule="evenodd" d="M310 493L133 493L133 472L310 472L310 493Z" fill="#0F0F0F"/>
<path fill-rule="evenodd" clip-rule="evenodd" d="M219.85 587.743L133 523.922L145.435 507L232.285 570.82L219.85 587.743Z" fill="#0F0F0F"/>
<path fill-rule="evenodd" clip-rule="evenodd" d="M273.819 591L451.007 727.551L438.188 744.185L261 607.634L273.819 591Z" fill="#0F0F0F"/>
<path fill-rule="evenodd" clip-rule="evenodd" d="M415.158 425.914L362.532 555.257L343.081 547.343L395.707 418L415.158 425.914Z" fill="#0F0F0F"/>
<path fill-rule="evenodd" clip-rule="evenodd" d="M455.968 555.819L266.634 801.497L250 788.678L439.334 543L455.968 555.819Z" fill="#0F0F0F"/>
<path fill-rule="evenodd" clip-rule="evenodd" d="M435 250L296 250L296 229L435 229L435 250Z" fill="#0F0F0F"/>
<path fill-rule="evenodd" clip-rule="evenodd" d="M440.996 457.065L325 408.363L333.13 389L449.126 437.703L440.996 457.065Z" fill="#0F0F0F"/>
<path fill-rule="evenodd" clip-rule="evenodd" d="M447.579 311.611L336.89 378.743L326 360.787L436.689 293.655L447.579 311.611Z" fill="#0F0F0F"/>
<path fill-rule="evenodd" clip-rule="evenodd" d="M130.126 208.861L15.6978 248.172L8.87476 228.312L123.303 189L130.126 208.861Z" fill="#0F0F0F"/>
<path fill-rule="evenodd" clip-rule="evenodd" d="M105.967 324.369L14.9978 409.072L0.687286 393.703L91.6562 309L105.967 324.369Z" fill="#0F0F0F"/>
<path fill-rule="evenodd" clip-rule="evenodd" d="M154 531L67 531L67 510L154 510L154 531Z" fill="#0F0F0F"/>
<path fill-rule="evenodd" clip-rule="evenodd" d="M145 446L18 446L18 425L145 425L145 446Z" fill="#0F0F0F"/>
<path fill-rule="evenodd" clip-rule="evenodd" d="M222.711 609.754L17.8268 673.543L11.5842 653.492L216.468 589.703L222.711 609.754Z" fill="#0F0F0F"/>
<path fill-rule="evenodd" clip-rule="evenodd" d="M310 408L310 524L289 524L289 408L310 408Z" fill="#0F0F0F"/>
<path fill-rule="evenodd" clip-rule="evenodd" d="M310 350L310 127L289 127L289 350L310 350Z" fill="#0F0F0F"/>
<path fill-rule="evenodd" clip-rule="evenodd" d="M389 348L389 229L368 229L368 348L389 348Z" fill="#0F0F0F"/>
<path fill-rule="evenodd" clip-rule="evenodd" d="M452.983 379.057L407.363 312L390 323.812L435.62 390.869L452.983 379.057Z" fill="#0F0F0F"/>
<path fill-rule="evenodd" clip-rule="evenodd" d="M154 225L154 525L133 525L133 225L154 225Z" fill="#0F0F0F"/>
<path fill-rule="evenodd" clip-rule="evenodd" d="M154 127L154 177L133 177L133 127L154 127Z" fill="#0F0F0F"/>
<path fill-rule="evenodd" clip-rule="evenodd" d="M54 426L54 493L33 493L33 426L54 426Z" fill="#0F0F0F"/>
<path fill-rule="evenodd" clip-rule="evenodd" d="M217 279L217 392L196 392L196 279L217 279Z" fill="#0F0F0F"/>
<path fill-rule="evenodd" clip-rule="evenodd" d="M238 193L238 300L217 300L217 193L238 193Z" fill="#0F0F0F"/>
<path fill-rule="evenodd" clip-rule="evenodd" d="M311.719 521.819L262.721 585.394L246.088 572.574L295.085 509L311.719 521.819Z" fill="#0F0F0F"/>
<path fill-rule="evenodd" clip-rule="evenodd" d="M67.3464 544.589L176.613 846.674L156.865 853.817L47.5986 551.732L67.3464 544.589Z" fill="#0F0F0F"/>
<path fill-rule="evenodd" clip-rule="evenodd" d="M258.748 611L368.015 913.085L348.267 920.228L239 618.143L258.748 611Z" fill="#0F0F0F"/>
<path fill-rule="evenodd" clip-rule="evenodd" d="M300.819 503L446.915 615.591L434.096 632.224L361.048 575.929L288 519.634L300.819 503Z" fill="#0F0F0F"/>
<path fill-rule="evenodd" clip-rule="evenodd" d="M310 210H157V189H310V210Z" fill="#0F0F0F"/>
<path fill-rule="evenodd" clip-rule="evenodd" d="M438 177H294V156H438V177Z" fill="#0F0F0F"/>
<path d="M43.5 544C56.8813 544 67 532.844 67 520C67 507.156 56.8813 496 43.5 496C30.1187 496 20 507.156 20 520C20 532.844 30.1187 544 43.5 544Z" stroke="#0F0F0F" stroke-width="22"/>
<path d="M245.5 623C258.881 623 269 611.844 269 599C269 586.156 258.881 575 245.5 575C232.119 575 222 586.156 222 599C222 611.844 232.119 623 245.5 623Z" stroke="#0F0F0F" stroke-width="22"/>
<path d="M299.5 419C319.859 419 336 402.232 336 382C336 361.768 319.859 345 299.5 345C279.141 345 263 361.768 263 382C263 402.232 279.141 419 299.5 419Z" stroke="#0F0F0F" stroke-width="22"/>
<path d="M143.5 224C156.881 224 167 212.844 167 200C167 187.156 156.881 176 143.5 176C130.119 176 120 187.156 120 200C120 212.844 130.119 224 143.5 224Z" stroke="#0F0F0F" stroke-width="22"/>
<path fill-rule="evenodd" clip-rule="evenodd" d="M263 552.5C263 544.492 256.508 538 248.5 538C240.492 538 234 544.492 234 552.5C234 554.301 234.328 556.025 234.928 557.616C237.63 566.635 248.576 575.976 248.576 575.976C248.576 575.976 261.439 565 262.719 555.356C262.903 554.432 263 553.477 263 552.5ZM248.5 546.976C251.551 546.976 254.024 549.449 254.024 552.5C254.024 555.551 251.551 558.024 248.5 558.024C245.449 558.024 242.976 555.551 242.976 552.5C242.976 549.449 245.449 546.976 248.5 546.976Z" fill="#9D68B7"/>
<path d="M253 544.5C253 540.91 255.91 538 259.5 538H261.5C265.09 538 268 540.91 268 544.5V546.5C268 550.09 265.09 553 261.5 553H259.5C255.91 553 253 550.09 253 546.5V544.5Z" fill="#D9D9D9"/>
<path d="M260.484 549.339C260.006 549.339 259.581 549.257 259.208 549.093C258.838 548.927 258.545 548.699 258.33 548.409C258.116 548.118 258.007 547.781 258 547.4H259.394C259.402 547.559 259.455 547.7 259.55 547.821C259.648 547.941 259.778 548.033 259.94 548.099C260.102 548.165 260.284 548.199 260.487 548.199C260.698 548.199 260.884 548.161 261.046 548.087C261.208 548.012 261.335 547.909 261.426 547.777C261.518 547.645 261.564 547.492 261.564 547.32C261.564 547.145 261.515 546.99 261.417 546.856C261.321 546.72 261.182 546.613 261.001 546.537C260.822 546.46 260.609 546.422 260.362 546.422H259.752V545.405H260.362C260.571 545.405 260.755 545.369 260.915 545.297C261.077 545.224 261.203 545.124 261.292 544.996C261.382 544.866 261.426 544.715 261.426 544.542C261.426 544.378 261.387 544.234 261.308 544.111C261.231 543.985 261.123 543.887 260.982 543.817C260.844 543.746 260.682 543.711 260.496 543.711C260.309 543.711 260.137 543.745 259.982 543.814C259.826 543.88 259.702 543.974 259.608 544.098C259.514 544.222 259.464 544.366 259.458 544.533H258.131C258.138 544.156 258.245 543.823 258.454 543.536C258.663 543.248 258.944 543.023 259.298 542.861C259.654 542.697 260.055 542.615 260.503 542.615C260.955 542.615 261.35 542.697 261.689 542.861C262.027 543.025 262.29 543.247 262.478 543.526C262.668 543.803 262.761 544.114 262.759 544.459C262.761 544.826 262.647 545.131 262.417 545.376C262.189 545.621 261.892 545.777 261.526 545.843V545.894C262.007 545.956 262.374 546.123 262.625 546.396C262.879 546.667 263.004 547.005 263.002 547.412C263.004 547.785 262.897 548.116 262.679 548.406C262.464 548.696 262.167 548.924 261.788 549.09C261.408 549.256 260.974 549.339 260.484 549.339Z" fill="black"/>
<path d="M353 553.5L302.5 518.5L257.5 578" stroke="#BF4E4E" stroke-width="5" stroke-linecap="round" stroke-linejoin="round" stroke-dasharray="10 10"/>
<circle cx="302.191" cy="519.191" r="17.9406" fill="#D9D9D9" stroke="#FF0000" stroke-width="2.5"/>
<rect x="300.121" y="510.875" width="4.47279" height="12.4132" rx="2.23639" transform="rotate(12.4366 300.121 510.875)" fill="black"/>
<rect x="297.961" y="520.574" width="2.30856" height="6.59756" transform="rotate(7.7583 297.961 520.574)" fill="black"/>
<rect x="299.256" y="521.905" width="2.30856" height="6.40689" transform="rotate(-23.7187 299.256 521.905)" fill="black"/>
<rect x="298.006" y="525.7" width="2.10607" height="6.92974" rx="1.05304" transform="rotate(32.8198 298.006 525.7)" fill="black"/>
<rect x="301.877" y="526.086" width="2.10607" height="6.40689" rx="1.05304" fill="black"/>
<rect x="301.719" y="512.863" width="2.10607" height="6.40689" rx="1.05304" transform="rotate(-18.8777 301.719 512.863)" fill="black"/>
<rect x="300.991" y="511.377" width="2.10669" height="7.07697" rx="1.05334" transform="rotate(51.2915 300.991 511.377)" fill="black"/>
<rect x="303.176" y="518.035" width="2.10607" height="6.40689" rx="1.05304" transform="rotate(-57.8272 303.176 518.035)" fill="black"/>
<rect x="296.215" y="514.745" width="2.10607" height="5.49436" rx="1.05304" transform="rotate(15.6343 296.215 514.745)" fill="black"/>
<circle cx="303.15" cy="508.638" r="2.63767" fill="black"/>
<path fill-rule="evenodd" clip-rule="evenodd" d="M315.364 506.544L291.889 533.637L290 532L313.474 504.907L315.364 506.544Z" fill="#FF0000"/>
<path fill-rule="evenodd" clip-rule="evenodd" d="M416 409.5C416 401.492 409.508 395 401.5 395C393.492 395 387 401.492 387 409.5C387 411.301 387.328 413.025 387.928 414.616C390.63 423.635 401.576 432.976 401.576 432.976C401.576 432.976 414.439 422 415.719 412.356C415.903 411.432 416 410.477 416 409.5ZM401.5 403.976C404.551 403.976 407.024 406.449 407.024 409.5C407.024 412.551 404.551 415.024 401.5 415.024C398.449 415.024 395.976 412.551 395.976 409.5C395.976 406.449 398.449 403.976 401.5 403.976Z" fill="#6887B7"/>
<path d="M406 401.5C406 397.91 408.91 395 412.5 395H414.5C418.09 395 421 397.91 421 401.5V403.5C421 407.09 418.09 410 414.5 410H412.5C408.91 410 406 407.09 406 403.5V401.5Z" fill="#D9D9D9"/>
<path d="M411.196 406.25V405.253L413.526 403.096C413.724 402.904 413.89 402.731 414.025 402.578C414.161 402.424 414.264 402.274 414.335 402.127C414.405 401.978 414.44 401.817 414.44 401.645C414.44 401.453 414.396 401.288 414.309 401.149C414.222 401.009 414.102 400.901 413.951 400.826C413.8 400.75 413.628 400.711 413.436 400.711C413.236 400.711 413.061 400.752 412.912 400.833C412.763 400.914 412.648 401.03 412.567 401.181C412.486 401.332 412.446 401.512 412.446 401.721H411.132C411.132 401.293 411.229 400.921 411.423 400.606C411.617 400.29 411.889 400.047 412.238 399.874C412.587 399.701 412.99 399.615 413.446 399.615C413.915 399.615 414.323 399.698 414.67 399.864C415.02 400.028 415.291 400.256 415.485 400.548C415.679 400.84 415.776 401.175 415.776 401.552C415.776 401.799 415.727 402.043 415.629 402.284C415.533 402.525 415.362 402.792 415.114 403.086C414.867 403.378 414.519 403.728 414.069 404.137L413.114 405.074V405.119H415.862V406.25H411.196Z" fill="black"/>
<path d="M143.5 436.5H117H43.5V494C62.7 495.2 67.5 511.167 67.5 519H143.5L228.5 580C260.5 565.2 270.167 589.167 271 603L357 670.5L410 598.5L353 553.5L402 430L334.5 400.5C342.9 358.5 315.667 346.667 301 346V287.5H207.5V380.5H143.5V436.5Z" stroke="#ACCC9D" stroke-width="5" stroke-linecap="round" stroke-linejoin="round" stroke-dasharray="10 10"/>
<path fill-rule="evenodd" clip-rule="evenodd" d="M287 265.5C287 257.492 280.508 251 272.5 251C264.492 251 258 257.492 258 265.5C258 267.301 258.328 269.025 258.928 270.616C261.63 279.635 272.576 288.976 272.576 288.976C272.576 288.976 285.439 278 286.719 268.356C286.903 267.432 287 266.477 287 265.5ZM272.5 259.976C275.551 259.976 278.024 262.449 278.024 265.5C278.024 268.551 275.551 271.024 272.5 271.024C269.449 271.024 266.976 268.551 266.976 265.5C266.976 262.449 269.449 259.976 272.5 259.976Z" fill="#B79268"/>
<path d="M277 257.5C277 253.91 279.91 251 283.5 251H285.5C289.09 251 292 253.91 292 257.5V259.5C292 263.09 289.09 266 285.5 266H283.5C279.91 266 277 263.09 277 259.5V257.5Z" fill="#D9D9D9"/>
<path d="M285.677 255.705V262.25H284.293V257.018H284.254L282.755 257.958V256.73L284.376 255.705H285.677Z" fill="black"/>
<path fill-rule="evenodd" clip-rule="evenodd" d="M118 412.5C118 404.492 111.508 398 103.5 398C95.4919 398 89 404.492 89 412.5C89 414.301 89.3283 416.025 89.9284 417.616C92.6298 426.635 103.576 435.976 103.576 435.976C103.576 435.976 116.439 425 117.719 415.356C117.903 414.432 118 413.477 118 412.5ZM103.5 406.976C106.551 406.976 109.024 409.449 109.024 412.5C109.024 415.551 106.551 418.024 103.5 418.024C100.449 418.024 97.9762 415.551 97.9762 412.5C97.9762 409.449 100.449 406.976 103.5 406.976Z" fill="#5A9550"/>
<rect x="82" y="390" width="43" height="13" rx="5" fill="#D9D9D9"/>
<path d="M88.1967 394.781C88.1702 394.533 88.0585 394.34 87.8615 394.202C87.6664 394.063 87.4126 393.994 87.1001 393.994C86.8804 393.994 86.692 394.027 86.5348 394.094C86.3776 394.16 86.2573 394.25 86.174 394.364C86.0907 394.477 86.0481 394.607 86.0462 394.753C86.0462 394.874 86.0736 394.979 86.1286 395.068C86.1854 395.157 86.2621 395.233 86.3587 395.295C86.4553 395.356 86.5623 395.407 86.6797 395.449C86.7971 395.491 86.9155 395.526 87.0348 395.554L87.5803 395.69C87.8 395.741 88.0111 395.811 88.2138 395.898C88.4183 395.985 88.6011 396.095 88.7621 396.227C88.925 396.36 89.0537 396.52 89.1484 396.707C89.2431 396.895 89.2905 397.115 89.2905 397.366C89.2905 397.707 89.2034 398.008 89.0291 398.267C88.8549 398.525 88.603 398.726 88.2734 398.872C87.9458 399.016 87.549 399.088 87.0831 399.088C86.6304 399.088 86.2375 399.018 85.9041 398.878C85.5727 398.738 85.3132 398.533 85.1257 398.264C84.9401 397.995 84.8397 397.668 84.8246 397.281H85.8615C85.8767 397.484 85.9392 397.652 86.049 397.787C86.1589 397.921 86.3018 398.022 86.478 398.088C86.656 398.154 86.8549 398.188 87.0746 398.188C87.3037 398.188 87.5045 398.153 87.6768 398.085C87.8511 398.015 87.9875 397.919 88.0859 397.795C88.1844 397.67 88.2346 397.525 88.2365 397.358C88.2346 397.206 88.1901 397.081 88.103 396.983C88.0159 396.883 87.8937 396.799 87.7365 396.733C87.5812 396.665 87.3994 396.604 87.1911 396.551L86.5291 396.381C86.05 396.258 85.6712 396.071 85.3928 395.821C85.1162 395.569 84.978 395.235 84.978 394.818C84.978 394.475 85.0708 394.175 85.2564 393.918C85.4439 393.66 85.6986 393.46 86.0206 393.318C86.3426 393.174 86.7071 393.102 87.1143 393.102C87.5272 393.102 87.889 393.174 88.1996 393.318C88.5121 393.46 88.7573 393.658 88.9354 393.912C89.1134 394.164 89.2053 394.454 89.2109 394.781H88.1967ZM92.3636 394.636V395.432H89.8551V394.636H92.3636ZM90.4744 393.591H91.5028V397.688C91.5028 397.826 91.5237 397.932 91.5653 398.006C91.6089 398.078 91.6657 398.127 91.7358 398.153C91.8059 398.18 91.8835 398.193 91.9688 398.193C92.0331 398.193 92.0919 398.188 92.1449 398.179C92.1998 398.17 92.2415 398.161 92.2699 398.153L92.4432 398.957C92.3883 398.976 92.3097 398.997 92.2074 399.02C92.107 399.043 91.9839 399.056 91.8381 399.06C91.5805 399.067 91.3485 399.028 91.142 398.943C90.9356 398.856 90.7718 398.722 90.6506 398.54C90.5313 398.358 90.4725 398.131 90.4744 397.858V393.591ZM94.4794 399.088C94.2029 399.088 93.9538 399.039 93.7322 398.94C93.5125 398.84 93.3383 398.692 93.2095 398.497C93.0826 398.302 93.0192 398.062 93.0192 397.776C93.0192 397.529 93.0646 397.326 93.1555 397.165C93.2464 397.004 93.3705 396.875 93.5277 396.778C93.6849 396.682 93.862 396.609 94.0589 396.56C94.2578 396.509 94.4633 396.472 94.6754 396.449C94.9311 396.422 95.1385 396.399 95.2976 396.378C95.4567 396.355 95.5722 396.321 95.6442 396.276C95.718 396.228 95.755 396.155 95.755 396.057V396.04C95.755 395.826 95.6915 395.66 95.5646 395.543C95.4377 395.425 95.255 395.366 95.0163 395.366C94.7644 395.366 94.5646 395.421 94.4169 395.531C94.2711 395.641 94.1726 395.771 94.1214 395.92L93.1612 395.784C93.237 395.519 93.362 395.297 93.5362 395.119C93.7105 394.939 93.9235 394.805 94.1754 394.716C94.4273 394.625 94.7057 394.58 95.0107 394.58C95.2209 394.58 95.4302 394.604 95.6385 394.653C95.8468 394.703 96.0372 394.784 96.2095 394.898C96.3819 395.009 96.5201 395.162 96.6243 395.355C96.7304 395.548 96.7834 395.79 96.7834 396.08V399H95.7947V398.401H95.7607C95.6982 398.522 95.6101 398.635 95.4964 398.741C95.3847 398.846 95.2436 398.93 95.0732 398.994C94.9046 399.057 94.7067 399.088 94.4794 399.088ZM94.7464 398.332C94.9529 398.332 95.1319 398.292 95.2834 398.21C95.4349 398.127 95.5514 398.017 95.6328 397.881C95.7161 397.744 95.7578 397.596 95.7578 397.435V396.92C95.7256 396.947 95.6707 396.972 95.593 396.994C95.5173 397.017 95.4321 397.037 95.3374 397.054C95.2427 397.071 95.1489 397.086 95.0561 397.099C94.9633 397.113 94.8828 397.124 94.8146 397.134C94.6612 397.154 94.5239 397.188 94.4027 397.236C94.2815 397.283 94.1858 397.349 94.1158 397.435C94.0457 397.518 94.0107 397.626 94.0107 397.759C94.0107 397.948 94.0798 398.091 94.218 398.188C94.3563 398.284 94.5324 398.332 94.7464 398.332ZM97.8175 399V394.636H98.8146V395.364H98.8601C98.9396 395.112 99.076 394.918 99.2692 394.781C99.4643 394.643 99.6868 394.574 99.9368 394.574C99.9936 394.574 100.057 394.577 100.127 394.582C100.199 394.586 100.259 394.593 100.306 394.602V395.548C100.263 395.533 100.193 395.52 100.099 395.509C100.006 395.495 99.916 395.489 99.8288 395.489C99.6413 395.489 99.4728 395.529 99.3232 395.611C99.1754 395.69 99.0589 395.801 98.9737 395.943C98.8885 396.085 98.8459 396.249 98.8459 396.435V399H97.8175ZM103.403 394.636V395.432H100.894V394.636H103.403ZM101.513 393.591H102.542V397.688C102.542 397.826 102.563 397.932 102.604 398.006C102.648 398.078 102.705 398.127 102.775 398.153C102.845 398.18 102.923 398.193 103.008 398.193C103.072 398.193 103.131 398.188 103.184 398.179C103.239 398.17 103.281 398.161 103.309 398.153L103.482 398.957C103.427 398.976 103.349 398.997 103.246 399.02C103.146 399.043 103.023 399.056 102.877 399.06C102.62 399.067 102.388 399.028 102.181 398.943C101.975 398.856 101.811 398.722 101.69 398.54C101.57 398.358 101.512 398.131 101.513 397.858V393.591ZM106.638 392.909L104.763 399.875H103.862L105.737 392.909H106.638ZM107.339 399V393.182H111.124V394.065H108.393V395.645H110.928V396.528H108.393V398.116H111.146V399H107.339ZM113.182 396.443V399H112.153V394.636H113.136V395.378H113.188C113.288 395.134 113.448 394.939 113.668 394.795C113.889 394.652 114.163 394.58 114.489 394.58C114.79 394.58 115.052 394.644 115.276 394.773C115.501 394.902 115.675 395.088 115.798 395.332C115.923 395.577 115.985 395.873 115.983 396.222V399H114.955V396.381C114.955 396.089 114.879 395.861 114.727 395.696C114.578 395.531 114.37 395.449 114.105 395.449C113.925 395.449 113.765 395.489 113.625 395.568C113.487 395.646 113.378 395.759 113.298 395.906C113.221 396.054 113.182 396.233 113.182 396.443ZM118.648 399.077C118.305 399.077 117.998 398.989 117.727 398.812C117.456 398.636 117.242 398.381 117.085 398.045C116.928 397.71 116.849 397.303 116.849 396.824C116.849 396.339 116.929 395.93 117.088 395.597C117.249 395.261 117.466 395.009 117.739 394.838C118.011 394.666 118.315 394.58 118.651 394.58C118.906 394.58 119.116 394.623 119.281 394.71C119.446 394.795 119.577 394.899 119.673 395.02C119.77 395.139 119.845 395.252 119.898 395.358H119.94V393.182H120.972V399H119.96V398.312H119.898C119.845 398.419 119.768 398.531 119.668 398.651C119.567 398.768 119.435 398.868 119.27 398.952C119.105 399.035 118.898 399.077 118.648 399.077ZM118.935 398.233C119.152 398.233 119.338 398.174 119.491 398.057C119.645 397.937 119.761 397.772 119.841 397.56C119.92 397.348 119.96 397.1 119.96 396.818C119.96 396.536 119.92 396.291 119.841 396.082C119.763 395.874 119.648 395.712 119.494 395.597C119.343 395.481 119.156 395.423 118.935 395.423C118.705 395.423 118.514 395.483 118.361 395.602C118.207 395.722 118.092 395.886 118.014 396.097C117.937 396.307 117.898 396.547 117.898 396.818C117.898 397.091 117.937 397.334 118.014 397.548C118.094 397.76 118.21 397.928 118.364 398.051C118.519 398.172 118.709 398.233 118.935 398.233Z" fill="black"/>
<defs>
<linearGradient id="paint0_linear_2_13" x1="226" y1="0" x2="226" y2="841.754" gradientUnits="userSpaceOnUse">
<stop offset="0.15" stop-color="#0F0F0F"/>
<stop offset="0.46" stop-color="#262626"/>
<stop offset="0.53" stop-color="#252525"/>
<stop offset="0.86" stop-color="#0F0F0F"/>
</linearGradient>
</defs>
</svg>
