<?xml version="1.0" encoding="UTF-8" standalone="no"?>
<svg
   width="24"
   height="24"
   viewBox="0 0 24 24"
   fill="none"
   version="1.1"
   id="svg1"
   xmlns="http://www.w3.org/2000/svg"
   xmlns:svg="http://www.w3.org/2000/svg">
  <defs
     id="defs1" />
  <path
     d="M 4,9 C 4,6.17157 4,4.75736 4.87868,3.87868 5.75736,3 7.17157,3 10,3 h 4 c 2.8284,0 4.2426,0 5.1213,0.87868 C 20,4.75736 20,6.17157 20,9 v 6.8276 c 0,2.6833 0,4.0249 -0.8443,4.4353 -0.8443,0.4104 -1.8992,-0.4185 -4.0092,-2.0763 L 14.4713,17.656 C 13.2849,16.7239 12.6917,16.2578 12,16.2578 c -0.6917,0 -1.2849,0.4661 -2.47129,1.3982 L 8.85346,18.1866 C 6.74355,19.8444 5.68859,20.6733 4.84429,20.2629 4,19.8525 4,18.5109 4,15.8276 Z"
     fill="#222222"
     stroke="#222222"
     stroke-width="2"
     id="path1"
     style="fill:#f0f0f0;fill-opacity:1;stroke:#f0f0f0;stroke-opacity:1" />
</svg>
