<?xml version="1.0" encoding="UTF-8" standalone="no"?>
<!-- Created with Inkscape (http://www.inkscape.org/) -->

<svg
   width="4.9210134mm"
   height="5.291667mm"
   viewBox="0 0 4.9210134 5.291667"
   version="1.1"
   id="svg1"
   inkscape:version="1.3.2 (091e20e, 2023-11-25, custom)"
   sodipodi:docname="tfg-app-icons.svg"
   xml:space="preserve"
   xmlns:inkscape="http://www.inkscape.org/namespaces/inkscape"
   xmlns:sodipodi="http://sodipodi.sourceforge.net/DTD/sodipodi-0.dtd"
   xmlns="http://www.w3.org/2000/svg"
   xmlns:svg="http://www.w3.org/2000/svg"><sodipodi:namedview
     id="namedview1"
     pagecolor="#505050"
     bordercolor="#eeeeee"
     borderopacity="1"
     inkscape:showpageshadow="0"
     inkscape:pageopacity="0"
     inkscape:pagecheckerboard="0"
     inkscape:deskcolor="#505050"
     inkscape:document-units="mm"
     inkscape:zoom="2.9255612"
     inkscape:cx="112.45706"
     inkscape:cy="66.824786"
     inkscape:window-width="1920"
     inkscape:window-height="1017"
     inkscape:window-x="1912"
     inkscape:window-y="-8"
     inkscape:window-maximized="1"
     inkscape:current-layer="layer1" /><defs
     id="defs1" /><g
     inkscape:label="Capa 1"
     inkscape:groupmode="layer"
     id="layer1"
     transform="translate(-53.943101,-28.561605)"><path
       d="m 54.216522,30.47532 c 0,-0.773253 0,-1.159878 0.240218,-1.400096 0.240219,-0.240219 0.626844,-0.240219 1.400096,-0.240219 h 1.093543 c 0.773245,0 1.159867,0 1.400091,0.240219 0.240224,0.240218 0.240224,0.626843 0.240224,1.400096 v 1.866568 c 0,0.733576 0,1.100351 -0.23082,1.212548 -0.230819,0.112198 -0.519214,-0.114412 -1.096058,-0.567631 l -0.18459,-0.145058 c -0.324345,-0.254823 -0.486517,-0.382248 -0.675618,-0.382248 -0.189101,0 -0.351274,0.127425 -0.675616,0.382248 l -0.184603,0.145058 c -0.57682,0.453219 -0.865231,0.679829 -1.09605,0.567631 -0.230817,-0.112197 -0.230817,-0.478972 -0.230817,-1.212548 z"
       fill="#222222"
       stroke="#222222"
       stroke-width="0.546772"
       id="path1"
       style="fill:none;fill-opacity:1;stroke:#f0f0f0;stroke-opacity:1"
       inkscape:export-filename="UNIVERSIDAD\I. INFORMATICA\4(CURSO_23-24)\TFG\tfg-app\assets\icons\bookmark.svg"
       inkscape:export-xdpi="96"
       inkscape:export-ydpi="96" /></g></svg>
