<?xml version="1.0" encoding="UTF-8" standalone="no"?>
<!-- Created with Inkscape (http://www.inkscape.org/) -->

<svg
   width="5.2927403mm"
   height="4.516181mm"
   viewBox="0 0 5.2927403 4.516181"
   version="1.1"
   id="svg1"
   inkscape:version="1.3.2 (091e20e, 2023-11-25, custom)"
   sodipodi:docname="tfg-app-icons.svg"
   xml:space="preserve"
   xmlns:inkscape="http://www.inkscape.org/namespaces/inkscape"
   xmlns:sodipodi="http://sodipodi.sourceforge.net/DTD/sodipodi-0.dtd"
   xmlns="http://www.w3.org/2000/svg"
   xmlns:svg="http://www.w3.org/2000/svg"><sodipodi:namedview
     id="namedview1"
     pagecolor="#505050"
     bordercolor="#eeeeee"
     borderopacity="1"
     inkscape:showpageshadow="0"
     inkscape:pageopacity="0"
     inkscape:pagecheckerboard="0"
     inkscape:deskcolor="#505050"
     inkscape:document-units="mm"
     inkscape:zoom="2.9255612"
     inkscape:cx="112.45706"
     inkscape:cy="66.824786"
     inkscape:window-width="1920"
     inkscape:window-height="1017"
     inkscape:window-x="1912"
     inkscape:window-y="-8"
     inkscape:window-maximized="1"
     inkscape:current-layer="layer1" /><defs
     id="defs1" /><g
     inkscape:label="Capa 1"
     inkscape:groupmode="layer"
     id="layer1"
     transform="translate(-81.639292,-28.949348)"><g
       style="fill:none"
       id="g7"
       transform="matrix(0.26463721,0,0,0.28303472,81.110016,27.811015)"><path
         d="M 21,16.6953 V 5.66466 C 21,5.34631 20.6785,5.12861 20.3829,5.24685 L 16.1351,6.94596 C 16.0473,6.98109 15.9506,6.98765 15.8588,6.96471 L 8.14116,5.03529 C 8.04939,5.01235 7.95273,5.01891 7.8649,5.05404 L 3.28287,6.88685 C 3.11203,6.95519 3,7.12066 3,7.30466 V 18.3353 c 0,0.3184 0.32154,0.5361 0.61713,0.4178 L 7.8649,17.054 c 0.08783,-0.0351 0.18449,-0.0417 0.27627,-0.0187 l 7.71763,1.9294 c 0.0918,0.023 0.1885,0.0164 0.2763,-0.0187 l 4.582,-1.8329 C 20.888,17.0448 21,16.8793 21,16.6953 Z"
         stroke="#33363f"
         stroke-width="2"
         stroke-linejoin="round"
         id="path1-9"
         style="stroke:#f0f0f0;stroke-opacity:1" /><path
         d="M 16,19 V 7"
         stroke="#33363f"
         stroke-width="2"
         id="path2-7"
         style="stroke:#f0f0f0;stroke-opacity:1" /><path
         d="M 8,17 V 5"
         stroke="#33363f"
         stroke-width="2"
         id="path3"
         style="stroke:#f0f0f0;stroke-opacity:1" /></g></g></svg>
