<?xml version="1.0" encoding="UTF-8" standalone="no"?>
<svg
   width="88.190208"
   height="43.799568"
   viewBox="0 0 88.190208 43.799568"
   fill="none"
   version="1.1"
   id="svg1"
   xml:space="preserve"
   xmlns="http://www.w3.org/2000/svg"
   xmlns:svg="http://www.w3.org/2000/svg"><defs
     id="defs1" /><g
     style="fill:none"
     id="g6"
     transform="translate(65.917713,21.102353)"><g
       style="fill:none"
       id="g7"
       transform="translate(-47.051333,-0.26185979)"><path
         d="M 21,16.6953 V 5.66466 C 21,5.34631 20.6785,5.12861 20.3829,5.24685 L 16.1351,6.94596 C 16.0473,6.98109 15.9506,6.98765 15.8588,6.96471 L 8.14116,5.03529 C 8.04939,5.01235 7.95273,5.01891 7.8649,5.05404 L 3.28287,6.88685 C 3.11203,6.95519 3,7.12066 3,7.30466 V 18.3353 c 0,0.3184 0.32154,0.5361 0.61713,0.4178 L 7.8649,17.054 c 0.08783,-0.0351 0.18449,-0.0417 0.27627,-0.0187 l 7.71763,1.9294 c 0.0918,0.023 0.1885,0.0164 0.2763,-0.0187 l 4.582,-1.8329 C 20.888,17.0448 21,16.8793 21,16.6953 Z"
         stroke="#33363f"
         stroke-width="2"
         stroke-linejoin="round"
         id="path1-9"
         style="stroke:#f0f0f0;stroke-opacity:1" /><path
         d="M 16,19 V 7"
         stroke="#33363f"
         stroke-width="2"
         id="path2-7"
         style="stroke:#f0f0f0;stroke-opacity:1" /><path
         d="M 8,17 V 5"
         stroke="#33363f"
         stroke-width="2"
         id="path3"
         style="stroke:#f0f0f0;stroke-opacity:1" /></g></g></svg>
