<?xml version="1.0" encoding="UTF-8" standalone="no"?>
<svg
   width="88.190208"
   height="43.799568"
   viewBox="0 0 88.190208 43.799568"
   fill="none"
   version="1.1"
   id="svg1"
   xml:space="preserve"
   xmlns="http://www.w3.org/2000/svg"
   xmlns:svg="http://www.w3.org/2000/svg"><defs
     id="defs1" /><g
     style="fill:none"
     id="g6"
     transform="translate(65.917713,21.102353)"><g
       style="fill:none"
       id="g8"
       transform="translate(-68.917713,-0.74772549)"><path
         fill-rule="evenodd"
         clip-rule="evenodd"
         d="M 7,5.87703 C 7,5.16956 6.28547,4.68581 5.62861,4.94855 l -2,0.8 C 3.24895,5.90042 3,6.26813 3,6.67703 V 18.523 c 0,0.7074 0.71453,1.1912 1.37139,0.9284 l 2,-0.8 C 6.75105,18.4996 7,18.1319 7,17.723 Z M 9,17.4692 c 0,0.4589 0.3123,0.8589 0.75746,0.9702 l 4.00004,1 C 14.3886,19.5971 15,19.1198 15,18.4692 V 6.53077 C 15,6.07191 14.6877,5.67192 14.2425,5.56063 l -4,-1 C 9.61139,4.40284 9,4.8802 9,5.53077 Z M 17.6286,5.34855 C 17.249,5.50042 17,5.86813 17,6.27703 V 18.123 c 0,0.7074 0.7145,1.1912 1.3714,0.9284 l 2,-0.8 C 20.751,18.0996 21,17.7319 21,17.323 V 5.47703 C 21,4.76956 20.2855,4.28581 19.6286,4.54855 Z"
         fill="#33363f"
         id="path1-1"
         style="fill:#f0f0f0;fill-opacity:1" /></g></g></svg>
