<?xml version="1.0" encoding="UTF-8" standalone="no"?>
<!-- Created with Inkscape (http://www.inkscape.org/) -->

<svg
   width="5.2916665mm"
   height="4.4238014mm"
   viewBox="0 0 5.2916665 4.4238014"
   version="1.1"
   id="svg1"
   inkscape:version="1.3.2 (091e20e, 2023-11-25, custom)"
   sodipodi:docname="tfg-app-icons.svg"
   xml:space="preserve"
   xmlns:inkscape="http://www.inkscape.org/namespaces/inkscape"
   xmlns:sodipodi="http://sodipodi.sourceforge.net/DTD/sodipodi-0.dtd"
   xmlns="http://www.w3.org/2000/svg"
   xmlns:svg="http://www.w3.org/2000/svg"><sodipodi:namedview
     id="namedview1"
     pagecolor="#505050"
     bordercolor="#eeeeee"
     borderopacity="1"
     inkscape:showpageshadow="0"
     inkscape:pageopacity="0"
     inkscape:pagecheckerboard="0"
     inkscape:deskcolor="#505050"
     inkscape:document-units="mm"
     inkscape:zoom="2.9255612"
     inkscape:cx="112.45706"
     inkscape:cy="66.824786"
     inkscape:window-width="1920"
     inkscape:window-height="1017"
     inkscape:window-x="1912"
     inkscape:window-y="-8"
     inkscape:window-maximized="1"
     inkscape:current-layer="layer1" /><defs
     id="defs1" /><g
     inkscape:label="Capa 1"
     inkscape:groupmode="layer"
     id="layer1"
     transform="translate(-100.46022,-33.933467)"><g
       style="fill:none"
       id="g5"
       transform="matrix(0.29398148,0,0,0.29398148,100.46022,26.63371)"><path
         fill-rule="evenodd"
         clip-rule="evenodd"
         d="m 4,26.231658 c 0,-0.70747 -0.71453,-1.19122 -1.37139,-0.92848 l -2,0.8 C 0.24895,26.255048 0,26.622758 0,27.031658 v 11.84597 c 0,0.7074 0.71453,1.1912 1.37139,0.9284 l 2,-0.8 C 3.75105,38.854228 4,38.486528 4,38.077628 Z m 2,11.59217 c 0,0.4589 0.3123,0.8589 0.75746,0.9702 l 4.00004,1 c 0.6311,0.1577 1.2425,-0.3196 1.2425,-0.9702 v -11.93843 c 0,-0.45886 -0.3123,-0.85885 -0.7575,-0.97014 l -4,-1 C 6.61139,24.757468 6,25.234828 6,25.885398 Z m 8.6286,-12.12065 C 14.249,25.855048 14,26.222758 14,26.631658 v 11.84597 c 0,0.7074 0.7145,1.1912 1.3714,0.9284 l 2,-0.8 C 17.751,38.454228 18,38.086528 18,37.677628 v -11.84597 c 0,-0.70747 -0.7145,-1.19122 -1.3714,-0.92848 z"
         fill="#33363f"
         id="path1-1"
         style="fill:#f0f0f0;fill-opacity:1" /></g></g></svg>
