<?xml version="1.0" encoding="UTF-8" standalone="no"?>
<!-- Created with Inkscape (http://www.inkscape.org/) -->

<svg
   width="5.2916665mm"
   height="5.291667mm"
   viewBox="0 0 5.2916665 5.291667"
   version="1.1"
   id="svg1"
   inkscape:version="1.3.2 (091e20e, 2023-11-25, custom)"
   sodipodi:docname="tfg-app-icons.svg"
   xml:space="preserve"
   xmlns:inkscape="http://www.inkscape.org/namespaces/inkscape"
   xmlns:sodipodi="http://sodipodi.sourceforge.net/DTD/sodipodi-0.dtd"
   xmlns="http://www.w3.org/2000/svg"
   xmlns:svg="http://www.w3.org/2000/svg"><sodipodi:namedview
     id="namedview1"
     pagecolor="#505050"
     bordercolor="#eeeeee"
     borderopacity="1"
     inkscape:showpageshadow="0"
     inkscape:pageopacity="0"
     inkscape:pagecheckerboard="0"
     inkscape:deskcolor="#505050"
     inkscape:document-units="mm"
     inkscape:zoom="2.9255612"
     inkscape:cx="112.45706"
     inkscape:cy="66.824786"
     inkscape:window-width="1920"
     inkscape:window-height="1017"
     inkscape:window-x="1912"
     inkscape:window-y="-8"
     inkscape:window-maximized="1"
     inkscape:current-layer="layer1" /><defs
     id="defs1" /><g
     inkscape:label="Capa 1"
     inkscape:groupmode="layer"
     id="layer1"
     transform="translate(-120.70257,-33.414001)"><g
       style="fill:none"
       id="g8"
       transform="matrix(0.26458333,0,0,0.26458333,108.11866,33.173248)"><path
         fill-rule="evenodd"
         clip-rule="evenodd"
         d="m 47.561241,10.909933 c 0,-5.52285 4.47715,-10 10,-10 5.5228,0 10,4.47715 10,10 0,3.0141 -1.3335,5.7167 -3.4427,7.5501 -0.4577,-1.225 -1.2513,-2.302 -2.296,-3.1036 -1.2225,-0.938 -2.7204,-1.4465 -4.2613,-1.4465 -1.5409,0 -3.03882,0.5085 -4.26133,1.4465 -1.04462,0.8016 -1.83829,1.8786 -2.29598,3.1036 -2.1092,-1.8334 -3.44269,-4.536 -3.44269,-7.5501 z m 14.8296,8.7059 c 0.0041,0.0153 0.0085,0.0304 0.0133,0.0453 -1.4348,0.7957 -3.0859,1.2488 -4.8429,1.2488 -1.757,0 -3.40807,-0.4531 -4.84289,-1.2488 0.0047,-0.0149 0.0092,-0.03 0.01326,-0.0453 0.28488,-1.0632 0.9126,-2.0026 1.78582,-2.6727 0.87323,-0.67 1.94311,-1.0332 3.04381,-1.0332 1.1007,0 2.1706,0.3632 3.0438,1.0332 0.8732,0.6701 1.501,1.6095 1.7858,2.6727 z m -6.8296,-11.7059 c 0,-1.10457 0.8954,-2 2,-2 1.1046,0 2,0.89543 2,2 0,1.1046 -0.8954,2 -2,2 -1.1046,0 -2,-0.8954 -2,-2 z m 2,-4 c -2.20914,0 -4,1.79086 -4,4 0,2.2091 1.79086,4 4,4 2.2091,0 4,-1.7909 4,-4 0,-2.20914 -1.7909,-4 -4,-4 z"
         fill="#222222"
         id="path1-55"
         style="fill:#f0f0f0;fill-opacity:1;stroke:none" /></g></g></svg>
