<?xml version="1.0" encoding="UTF-8" standalone="no"?>
<svg
   width="89.382118"
   height="20.909933"
   viewBox="0 0 89.382118 20.909933"
   fill="none"
   version="1.1"
   id="svg1"
   xml:space="preserve"
   xmlns="http://www.w3.org/2000/svg"
   xmlns:svg="http://www.w3.org/2000/svg"><defs
     id="defs1" /><g
     style="fill:none"
     id="g3"
     transform="translate(45.561241,-1.090067)"><path
       fill-rule="evenodd"
       clip-rule="evenodd"
       d="M 2,12 C 2,6.47715 6.47715,2 12,2 c 5.5228,0 10,4.47715 10,10 0,3.0141 -1.3335,5.7167 -3.4427,7.5501 -0.4577,-1.225 -1.2513,-2.302 -2.296,-3.1036 C 15.0388,15.5085 13.5409,15 12,15 10.4591,15 8.96118,15.5085 7.73867,16.4465 6.69405,17.2481 5.90038,18.3251 5.44269,19.5501 3.33349,17.7167 2,15.0141 2,12 Z m 14.8296,8.7059 c 0.0041,0.0153 0.0085,0.0304 0.0133,0.0453 C 15.4081,21.5469 13.757,22 12,22 10.243,22 8.59193,21.5469 7.15711,20.7512 7.16185,20.7363 7.16628,20.7212 7.17037,20.7059 7.45525,19.6427 8.08297,18.7033 8.95619,18.0332 9.82942,17.3632 10.8993,17 12,17 c 1.1007,0 2.1706,0.3632 3.0438,1.0332 0.8732,0.6701 1.501,1.6095 1.7858,2.6727 z M 10,9 c 0,-1.10457 0.8954,-2 2,-2 1.1046,0 2,0.89543 2,2 0,1.1046 -0.8954,2 -2,2 -1.1046,0 -2,-0.8954 -2,-2 z M 12,5 C 9.79086,5 8,6.79086 8,9 c 0,2.2091 1.79086,4 4,4 2.2091,0 4,-1.7909 4,-4 0,-2.20914 -1.7909,-4 -4,-4 z"
       fill="#222222"
       id="path1"
       style="fill:#f0f0f0;fill-opacity:1;stroke:none" /></g></svg>
